<svg xmlns="http://www.w3.org/2000/svg" width="256" height="256" viewBox="0 0 256 256"><path d="M59.8 166.5a31 31 0 0 0-7.6.9c0 .3.2.6.7 1a18.6 18.6 0 0 0 2 1l2.7 1 2.7.8 2.4.6 1.5.2h2.1a10.9 10.9 0 0 0 2.5-.4l2.3-.8a4.2 4.2 0 0 0 1.7-1.5 27.7 27.7 0 0 0-6.3-2.2 37.1 37.1 0 0 0-6.7-.6z"/><path d="M128.2 1.8a126 126 0 1 0 126 126 126 126 0 0 0-126-126zm82.1 69.6v.3a3.2 3.2 0 0 1-.1 1.3 15.2 15.2 0 0 1-.3 2.1c-.1.8-.2 1.4-.3 2.1a6.3 6.3 0 0 1-.3 1.3l-.9 1.8-.6 2-.6 2a14.6 14.6 0 0 1-.7 1.9 21.4 21.4 0 0 1-1.7 3 29.6 29.6 0 0 0-1.5 3.1l-19.8 27.4-.2.6-.3.3-.3.2-.4.5-1.7 2.3-2 2.8-2.2 3.2a27.9 27.9 0 0 0-1.9 3.3 15.3 15.3 0 0 0-1.4 2.9 5.6 5.6 0 0 0-.5 2.3c0 .3-.3.5-.2.7s.1.5.1.7a.5.5 0 0 0-.2.4c0 .3.1.4.2.4v10.1a4.4 4.4 0 0 1-.2 1c-.2.4-.2.7-.4 1.1s-.5.8-.6 1.2-.4.8-.4 1.2v1.6c0 .1.1.2 0 .4s-.2.5-.4.8l-.7.8a1.1 1.1 0 0 1-.5.4v.4c0 .1.6.2.7.4s.9.4.9.4v2.8a19.7 19.7 0 0 1-.6 3.5c-.2 1.2-.6 2.3-.8 3.5s-.5 2.3-.6 3.5a19.7 19.7 0 0 0-.4 3.5c0 2.1.1 4.1.3 6.2a41 41 0 0 0 1.1 6.1 27.8 27.8 0 0 0 2.1 5.7 22.2 22.2 0 0 0 3.4 5.2l-1.2.8-1.7.7-1.7.4a3.6 3.6 0 0 1-1.4.1h-.5l-1-.2-1.2-.3-1-.2h-.7l-.8-.3-.6-.5-.3-.7a26.7 26.7 0 0 0 .1-4 32.2 32.2 0 0 0-.3-4.3c-.1-1.4-.3-2.8-.5-4.2s-.3-2.7-.5-4a6.4 6.4 0 0 1-.2-.7l-.2-.6c0-1.1.1-2.3.1-3.6s0-2.6-.1-4a26.3 26.3 0 0 0-.6-3.9 11.6 11.6 0 0 0-1.4-3.4 3.8 3.8 0 0 0-1.5 1.8 17.6 17.6 0 0 0-.7 2.7c-.3.9-.2 1.9-.5 2.9s-.9 1.7-.9 2.3v7.5c0 2.8-.2 5.5-.1 8.2a75.4 75.4 0 0 0 .6 8.1c0 .1.1.2.4.3l.8.6.8.7a1.3 1.3 0 0 1 .3.7c0 .2-.3.4-.8.7l-1.8.9-2 .8-1.3.4h-.2l-4.7-2.5a.4.4 0 0 1-.2-.5v-.8a29.9 29.9 0 0 1 0-3 28.1 28.1 0 0 0 .1-3 23.1 23.1 0 0 0-.3-3.7c-.1-1.3-.4-2.5-.6-3.7s-.4-2.5-.5-3.7a25.6 25.6 0 0 1-.3-3.9c0-1.2 0-2.3.1-3.3a27 27 0 0 1 .4-2.8 25.6 25.6 0 0 1 .5-2.7c.2-1 .4-2 .6-3.2a.8.8 0 0 0 0-.7 2.3 2.3 0 0 1-.1-.7 5.8 5.8 0 0 0-1.9.2l-1.8.5-1.9.6-1.9.5-1.4.2-1 .2-1-.2H134a44.7 44.7 0 0 1-5.2-.1h-7.6a4 4 0 0 0-2.3.8v5.2c-.1 1.7-.1 3.4-.2 5s-.2 3.4-.2 5.1-.2 3.4-.2 5.1v5.1c0 .5.7 1.1 1.1 1.6l1.4 1.7a9.4 9.4 0 0 1 1.2 1.8 3.7 3.7 0 0 1 .5 1.8v.2a7.8 7.8 0 0 1-4 .4c.1.5 0 .8-.3.8h-2.7l-2.2-.2a3.8 3.8 0 0 1-1.8-.9 2.1 2.1 0 0 1-.8-1.8 6.9 6.9 0 0 1 .2-1.3l.3-1.3.3-1.3a5.7 5.7 0 0 0 .1-1.3 23 23 0 0 0-.2-3.8c-.2-1.2-.4-2.4-.7-3.6s-.5-2.6-.8-3.8a30.8 30.8 0 0 1-.7-3.9h-.4c-.3 0-.4.7-.6.9l-.3.7-.4.5-1.5 2.2c-.5.8-1 1.5-1.4 2.3a12.8 12.8 0 0 0-1.1 2.4 7.7 7.7 0 0 0-.4 2.7 4.5 4.5 0 0 0 .3 1.6 10.1 10.1 0 0 0 .7 1.5l.7 1.1c.3.3.4.5.4.6s-.2.5-.5.7a2.3 2.3 0 0 1-1 .5l-1.3.3h-2.5l-1.8-.2a1.5 1.5 0 0 1-1-.4 2.7 2.7 0 0 1-.7-.8 9.1 9.1 0 0 1-.6-1.6 7.5 7.5 0 0 0-.5-1.6 9.9 9.9 0 0 1-.2-1.7 3.4 3.4 0 0 1 .4-1.5 11.9 11.9 0 0 1 .9-1.5l1.1-1.6.8-1.4 2.4-5.9 2.4-5.8.5-.8a1.8 1.8 0 0 0 .5-.7l.5-.7a2.2 2.2 0 0 0 .1-.8c0-.4-.1-.6-.3-.7h-1.3l-8.9 2.5a2.7 2.7 0 0 1-1.3.5l-1.7.4a4.4 4.4 0 0 0-1.6.6 1.1 1.1 0 0 0-.7 1 1.2 1.2 0 0 0 .3.9l.6.7.8.5.8.6-.4.4-1.3-.8-1.4-.8a4.7 4.7 0 0 0-1.5-.6 4 4 0 0 0-1.5-.3 16.4 16.4 0 0 0-3.7.5l-4 1.2-4 1.1a20.1 20.1 0 0 1-4.2.5 17.7 17.7 0 0 1-3.4-.4 37 37 0 0 1-4.9-1.1l-5.3-1.7a39.1 39.1 0 0 1-5-2.3 15.2 15.2 0 0 1-3.6-2.6 4.3 4.3 0 0 1-1.5-3 4.1 4.1 0 0 1 1.2-3.2 5.3 5.3 0 0 1 2.7-1.6c1-.4 2.2-.1 3.4-.2s2.4.3 3.4.3h3.9a2.7 2.7 0 0 1 1.3-.2h2.3l2.5.4 2 .2a7 7 0 0 1 1.9.6l1.8.8a7.5 7.5 0 0 0 1.8.7 4.5 4.5 0 0 0 2 .4 8.9 8.9 0 0 0 3.9-1.1 30 30 0 0 0 4.1-2.5l3.9-3.1 3.2-2.7a9.4 9.4 0 0 1 1.8-1.2l1.9-1.1 1.7-1.3a8.6 8.6 0 0 0 1.5-1.7c.9-1.4 1.8-2.9 2.6-4.4a28.2 28.2 0 0 1 2.6-4.4l1.3-1.3 1.6-1 1.6-.9 1.6-.9 3.6-2.6 3.4-2.9 3.3-3 3.4-2.8a17.9 17.9 0 0 1 3.8-2.2l3.9-1.8 2.4-1.3 2.5-1.3 2.5-1.1a13.8 13.8 0 0 1 2.7-.8l22.2-3.2a11.2 11.2 0 0 0 3.4-1.1 17.9 17.9 0 0 0 3.4-2.2 20.9 20.9 0 0 0 3.1-2.9c1-1 2-2.1 2.9-3.2l2.7-3.2 2.3-2.7 7.6-8.9.3-.3.6-.6c.2-.1.3-.3.5-.5l.3-.2 2-3.3h.2l.4-.3.4-.2.2-.2c.1 0 .2-.2.4-.4l.4-.4c.3-.5.8-1 1.2-1.7l1.4-1.9 1.3-2a9.5 9.5 0 0 0 .9-1.7 12.1 12.1 0 0 0 .9-2 17.2 17.2 0 0 1 .7-2.1c.2-.7.5-1.4.7-2.2s1-1.4 1-2.2v-6a5.3 5.3 0 0 0-1.1-3.1 12 12 0 0 0-5.9-4.3 8.1 8.1 0 0 0-3.2-.7 22.5 22.5 0 0 0-5.8.7 11.5 11.5 0 0 0-5 2.6 6.4 6.4 0 0 0-1.5 1.4l-1.6 2a16.3 16.3 0 0 1-1.7 2l-1.8 1.9-1.8 1.3a4.1 4.1 0 0 1-1.8.5 1.7 1.7 0 0 1-1.6-1.6v-.5a1 1 0 0 1 .1-.4c0-.3.1-.5.1-.8s.1-.5.2-.8V64a4.4 4.4 0 0 0-.2-1.7l-.6-1.3-.6-1.2a5 5 0 0 1-.2-1.2 1 1 0 0 0 .8-.3l.5-.6a3 3 0 0 1 .4-.8 1.8 1.8 0 0 1 .8-.6h2.8a1 1 0 0 0 .9-.4l.7-.7h.4c.1 0 .2.2.2.4s.2.3.2.4a.8.8 0 0 1 .4-.4l.6-.4a3 3 0 0 0 1.1-.6l1.4-.8 1.3-.8 1.1-.6.6-.4a13.5 13.5 0 0 1 2.1-1.3 4.9 4.9 0 0 1 1.7-.6l1.9-.2h6.4a4.7 4.7 0 0 0 1.5.6l1.5.3 1.5.3 1.6.5a13.7 13.7 0 0 1 4.5 3 18.1 18.1 0 0 1 3.2 4.1 22.7 22.7 0 0 1 1.7 5 25 25 0 0 1 .4 5.5v.6a2.7 2.7 0 0 1 0 .9z"/></svg>